HIERARCHY
ROOT Hips
{
	OFFSET 0.053599 88.859886 3.107447
	CHANNELS 6 Xposition Yposition Zposition Zrotation Yrotation Xrotation 
	JOINT Spine
	{
		OFFSET -0.000000 8.814246 -2.080107
		CHANNELS 3 Zrotation Yrotation Xrotation
		JOINT Spine1
		{
			OFFSET 0.000000 8.844141 0.000000
			CHANNELS 3 Zrotation Yrotation Xrotation
			JOINT Spine2
			{
				OFFSET -0.000000 11.682268 0.000000
				CHANNELS 3 Zrotation Yrotation Xrotation
				JOINT Spine3
				{
					OFFSET 0.000000 11.746700 0.000000
					CHANNELS 3 Zrotation Yrotation Xrotation
					JOINT Neck
					{
						OFFSET -0.000000 17.658264 -0.000000
						CHANNELS 3 Zrotation Yrotation Xrotation
						JOINT Neck1
						{
							OFFSET -0.000000 5.101515 -0.000000
							CHANNELS 3 Zrotation Yrotation Xrotation
							JOINT Head
							{
								OFFSET 0.000000 5.101515 0.000000
								CHANNELS 3 Zrotation Yrotation Xrotation
								JOINT HeadEnd
								{
									OFFSET 0.000000 11.655085 0.000000
									CHANNELS 3 Zrotation Yrotation Xrotation
									End Site
									{
										OFFSET 0.000000 0.000000 0.000000
									}
								}
							}
						}
					}
					JOINT RightShoulder
					{
						OFFSET -2.625389 11.175210 0.000000
						CHANNELS 3 Zrotation Yrotation Xrotation
						JOINT RightArm
						{
							OFFSET -0.000000 10.434715 -0.000000
							CHANNELS 3 Zrotation Yrotation Xrotation
							JOINT RightForeArm
							{
								OFFSET -0.000000 29.628420 0.000000
								CHANNELS 3 Zrotation Yrotation Xrotation
								JOINT RightHand
								{
									OFFSET -0.000000 22.857611 0.000000
									CHANNELS 3 Zrotation Yrotation Xrotation
									JOINT RightHandThumb1
									{
										OFFSET -2.867323 3.959563 2.944291
										CHANNELS 3 Zrotation Yrotation Xrotation
										JOINT RightHandThumb2
										{
											OFFSET 0.000000 3.350399 0.000000
											CHANNELS 3 Zrotation Yrotation Xrotation
											JOINT RightHandThumb3
											{
												OFFSET 0.000000 3.756509 -0.000000
												CHANNELS 3 Zrotation Yrotation Xrotation
												JOINT RightHandThumb4
												{
													OFFSET 0.000000 3.147345 0.000000
													CHANNELS 3 Zrotation Yrotation Xrotation
													End Site
													{
														OFFSET 0.000000 0.000000 0.000000
													}
												}
											}
										}
									}
									JOINT RightHandIndex1
									{
										OFFSET -0.086752 10.030893 2.345280
										CHANNELS 3 Zrotation Yrotation Xrotation
										JOINT RightHandIndex2
										{
											OFFSET -0.000000 4.061090 0.000000
											CHANNELS 3 Zrotation Yrotation Xrotation
											JOINT RightHandIndex3
											{
												OFFSET -0.000000 3.248873 0.000000
												CHANNELS 3 Zrotation Yrotation Xrotation
												JOINT RightHandIndex4
												{
													OFFSET 0.000000 2.639709 -0.000000
													CHANNELS 3 Zrotation Yrotation Xrotation
													End Site
													{
														OFFSET 0.000000 0.000000 0.000000
													}
												}
											}
										}
									}
									JOINT RightHandMiddle1
									{
										OFFSET 0.104102 9.502952 0.006768
										CHANNELS 3 Zrotation Yrotation Xrotation
										JOINT RightHandMiddle2
										{
											OFFSET 0.000000 4.568727 0.000000
											CHANNELS 3 Zrotation Yrotation Xrotation
											JOINT RightHandMiddle3
											{
												OFFSET 0.000000 3.654981 -0.000000
												CHANNELS 3 Zrotation Yrotation Xrotation
												JOINT RightHandMiddle4
												{
													OFFSET -0.000000 2.741236 -0.000000
													CHANNELS 3 Zrotation Yrotation Xrotation
													End Site
													{
														OFFSET 0.000000 0.000000 0.000000
													}
												}
											}
										}
									}
									JOINT RightHandRing1
									{
										OFFSET 0.086752 8.921708 -2.267442
										CHANNELS 3 Zrotation Yrotation Xrotation
										JOINT RightHandRing2
										{
											OFFSET -0.000000 4.061090 0.000000
											CHANNELS 3 Zrotation Yrotation Xrotation
											JOINT RightHandRing3
											{
												OFFSET 0.000000 3.654981 -0.000000
												CHANNELS 3 Zrotation Yrotation Xrotation
												JOINT RightHandRing4
												{
													OFFSET 0.000000 2.741236 -0.000000
													CHANNELS 3 Zrotation Yrotation Xrotation
													End Site
													{
														OFFSET 0.000000 0.000000 0.000000
													}
												}
											}
										}
									}
									JOINT RightHandPinky1
									{
										OFFSET -0.173504 7.976997 -4.467199
										CHANNELS 3 Zrotation Yrotation Xrotation
										JOINT RightHandPinky2
										{
											OFFSET 0.000000 3.350399 -0.000000
											CHANNELS 3 Zrotation Yrotation Xrotation
											JOINT RightHandPinky3
											{
												OFFSET -0.000000 2.842763 0.000000
												CHANNELS 3 Zrotation Yrotation Xrotation
												JOINT RightHandPinky4
												{
													OFFSET -0.000000 2.639709 0.000000
													CHANNELS 3 Zrotation Yrotation Xrotation
													End Site
													{
														OFFSET 0.000000 0.000000 0.000000
													}
												}
											}
										}
									}
									JOINT RightForeArmEnd
									{
										OFFSET 0.000000 0.000000 0.000000
										CHANNELS 3 Zrotation Yrotation Xrotation
										End Site
										{
											OFFSET 0.000000 0.000000 0.000000
										}
									}
								}
								JOINT RightArmEnd
								{
									OFFSET 0.000000 0.000000 0.000000
									CHANNELS 3 Zrotation Yrotation Xrotation
									End Site
									{
										OFFSET 0.000000 0.000000 0.000000
									}
								}
							}
						}
					}
					JOINT LeftShoulder
					{
						OFFSET 2.625389 11.175210 0.000000
						CHANNELS 3 Zrotation Yrotation Xrotation
						JOINT LeftArm
						{
							OFFSET 0.000000 10.813635 -0.000000
							CHANNELS 3 Zrotation Yrotation Xrotation
							JOINT LeftForeArm
							{
								OFFSET 0.000000 28.724781 0.000000
								CHANNELS 3 Zrotation Yrotation Xrotation
								JOINT LeftHand
								{
									OFFSET 0.644384 25.716167 -0.328871
									CHANNELS 3 Zrotation Yrotation Xrotation
									JOINT LeftHandThumb1
									{
										OFFSET 2.867323 3.959563 2.944291
										CHANNELS 3 Zrotation Yrotation Xrotation
										JOINT LeftHandThumb2
										{
											OFFSET 0.000000 3.350399 0.000000
											CHANNELS 3 Zrotation Yrotation Xrotation
											JOINT LeftHandThumb3
											{
												OFFSET -0.000000 3.756509 0.000000
												CHANNELS 3 Zrotation Yrotation Xrotation
												JOINT LeftHandThumb4
												{
													OFFSET -0.000000 3.100000 0.000000
													CHANNELS 3 Zrotation Yrotation Xrotation
													End Site
													{
														OFFSET 0.000000 0.000000 0.000000
													}
												}
											}
										}
									}
									JOINT LeftHandIndex1
									{
										OFFSET 0.086752 10.030893 2.345280
										CHANNELS 3 Zrotation Yrotation Xrotation
										JOINT LeftHandIndex2
										{
											OFFSET -0.000000 4.061090 -0.000000
											CHANNELS 3 Zrotation Yrotation Xrotation
											JOINT LeftHandIndex3
											{
												OFFSET 0.000000 3.248873 -0.000000
												CHANNELS 3 Zrotation Yrotation Xrotation
												JOINT LeftHandIndex4
												{
													OFFSET 0.000000 2.639709 -0.000000
													CHANNELS 3 Zrotation Yrotation Xrotation
													End Site
													{
														OFFSET 0.000000 0.000000 0.000000
													}
												}
											}
										}
									}
									JOINT LeftHandMiddle1
									{
										OFFSET -0.104102 9.502952 0.006768
										CHANNELS 3 Zrotation Yrotation Xrotation
										JOINT LeftHandMiddle2
										{
											OFFSET -0.000000 4.568727 -0.000000
											CHANNELS 3 Zrotation Yrotation Xrotation
											JOINT LeftHandMiddle3
											{
												OFFSET 0.000000 3.654981 0.000000
												CHANNELS 3 Zrotation Yrotation Xrotation
												JOINT LeftHandMiddle4
												{
													OFFSET 0.000000 2.741236 -0.000000
													CHANNELS 3 Zrotation Yrotation Xrotation
													End Site
													{
														OFFSET 0.000000 0.000000 0.000000
													}
												}
											}
										}
									}
									JOINT LeftHandRing1
									{
										OFFSET -0.086752 8.921708 -2.267442
										CHANNELS 3 Zrotation Yrotation Xrotation
										JOINT LeftHandRing2
										{
											OFFSET 0.000000 4.061090 0.000000
											CHANNELS 3 Zrotation Yrotation Xrotation
											JOINT LeftHandRing3
											{
												OFFSET 0.000000 3.654981 0.000000
												CHANNELS 3 Zrotation Yrotation Xrotation
												JOINT LeftHandRing4
												{
													OFFSET 0.000000 2.741236 0.000000
													CHANNELS 3 Zrotation Yrotation Xrotation
													End Site
													{
														OFFSET 0.000000 0.000000 0.000000
													}
												}
											}
										}
									}
									JOINT LeftHandPinky1
									{
										OFFSET 0.173504 7.976997 -4.467199
										CHANNELS 3 Zrotation Yrotation Xrotation
										JOINT LeftHandPinky2
										{
											OFFSET -0.000000 3.350399 -0.000000
											CHANNELS 3 Zrotation Yrotation Xrotation
											JOINT LeftHandPinky3
											{
												OFFSET 0.000000 2.842763 0.000000
												CHANNELS 3 Zrotation Yrotation Xrotation
												JOINT LeftHandPinky4
												{
													OFFSET -0.000000 2.639709 -0.000000
													CHANNELS 3 Zrotation Yrotation Xrotation
													End Site
													{
														OFFSET 0.000000 0.000000 0.000000
													}
												}
											}
										}
									}
									JOINT LeftForeArmEnd
									{
										OFFSET 0.000000 0.000000 0.000000
										CHANNELS 3 Zrotation Yrotation Xrotation
										End Site
										{
											OFFSET 0.000000 0.000000 0.000000
										}
									}
								}
								JOINT LeftArmEnd
								{
									OFFSET 0.000000 0.000000 0.000000
									CHANNELS 3 Zrotation Yrotation Xrotation
									End Site
									{
										OFFSET 0.000000 0.000000 0.000000
									}
								}
							}
						}
					}
				}
			}
		}
	}
	JOINT RightUpLeg
	{
		OFFSET -11.289943 0.000000 0.000000
		CHANNELS 3 Zrotation Yrotation Xrotation
		JOINT RightLeg
		{
			OFFSET 0.000000 -38.200325 0.000000
			CHANNELS 3 Zrotation Yrotation Xrotation
			JOINT RightFoot
			{
				OFFSET -0.000000 -39.900856 -0.000000
				CHANNELS 3 Zrotation Yrotation Xrotation
				JOINT RightToeBase
				{
					OFFSET 0.000000 0.000000 15.261641
					CHANNELS 3 Zrotation Yrotation Xrotation
					JOINT RightToeBaseEnd
					{
						OFFSET 0.000000 0.000000 7.370709
						CHANNELS 3 Zrotation Yrotation Xrotation
						End Site
						{
							OFFSET 0.000000 0.000000 0.000000
						}
					}
				}
				JOINT RightLegEnd
				{
					OFFSET 0.000000 0.000000 0.000000
					CHANNELS 3 Zrotation Yrotation Xrotation
					End Site
					{
						OFFSET 0.000000 0.000000 0.000000
					}
				}
			}
			JOINT RightUpLegEnd
			{
				OFFSET 0.000000 0.000000 0.000000
				CHANNELS 3 Zrotation Yrotation Xrotation
				End Site
				{
					OFFSET 0.000000 0.000000 0.000000
				}
			}
		}
	}
	JOINT LeftUpLeg
	{
		OFFSET 11.315661 -0.000000 0.000000
		CHANNELS 3 Zrotation Yrotation Xrotation
		JOINT LeftLeg
		{
			OFFSET -0.000000 -38.200325 -0.000000
			CHANNELS 3 Zrotation Yrotation Xrotation
			JOINT LeftFoot
			{
				OFFSET 0.000000 -39.900856 -0.000000
				CHANNELS 3 Zrotation Yrotation Xrotation
				JOINT LeftToeBase
				{
					OFFSET -0.000000 -0.000000 15.261641
					CHANNELS 3 Zrotation Yrotation Xrotation
					JOINT LeftToeBaseEnd
					{
						OFFSET 0.000000 -0.000000 7.539996
						CHANNELS 3 Zrotation Yrotation Xrotation
						End Site
						{
							OFFSET 0.000000 0.000000 0.000000
						}
					}
				}
				JOINT LeftLegEnd
				{
					OFFSET 0.000000 0.000000 0.000000
					CHANNELS 3 Zrotation Yrotation Xrotation
					End Site
					{
						OFFSET 0.000000 0.000000 0.000000
					}
				}
			}
			JOINT LeftUpLegEnd
			{
				OFFSET 0.000000 0.000000 0.000000
				CHANNELS 3 Zrotation Yrotation Xrotation
				End Site
				{
					OFFSET 0.000000 0.000000 0.000000
				}
			}
		}
	}
}
MOTION
Frames: 4
Frame Time: 0.016667
0.053599 88.859886 3.107447 0.490481 0.055862 -6.497332 0.023754 -0.000539 5.886370 -1.012250 0.067046 0.861970 0.478071 -2.416792 3.829567 0.155030 -0.780500 1.929224 2.330515 0.848112 5.016849 0.371683 2.117863 -3.221864 -0.714533 -0.852149 -18.222401 0.000000 0.000000 0.000000 92.418694 -0.394880 9.707912 65.456573 -33.431271 5.091406 -0.130291 12.440493 22.353239 6.882370 13.743960 -6.458578 10.637670 -1.840800 39.870983 0.000000 0.000000 -25.919998 0.000000 0.000000 -18.000004 0.000000 0.000000 0.000000 12.845482 -0.000000 -9.527125 8.991838 0.000000 0.000000 8.991838 0.000000 0.000000 0.000000 0.000000 0.000000 11.286146 -0.000000 -11.044980 7.900302 0.000000 0.000000 7.900302 0.000000 0.000000 0.000000 0.000000 0.000000 11.199185 0.000000 -11.348525 7.839428 0.000000 0.000000 7.839428 0.000000 0.000000 0.000000 0.000000 0.000000 10.416969 0.000000 -12.591636 7.291878 0.000000 0.000000 7.291878 0.000000 0.000000 0.000000 0.000000 0.000000 0.000000 0.000000 0.000000 0.000000 0.000000 0.000000 -90.370071 0.051974 5.208683 -71.842018 19.306828 -7.574249 -0.664994 -8.642401 40.885647 -0.139946 -25.486511 -15.477552 -11.236528 1.888869 39.607231 0.000000 0.000000 -27.360001 0.000000 0.000000 -18.999998 0.000000 0.000000 0.000000 -16.692022 0.000000 -11.498048 -11.684413 0.000000 0.000000 -11.684413 0.000000 0.000000 0.000000 0.000000 0.000000 -15.977510 0.000000 -11.317391 -11.184259 0.000000 0.000000 -11.184259 0.000000 0.000000 0.000000 0.000000 0.000000 -18.180992 -0.000000 -10.528083 -12.726697 0.000000 0.000000 -12.726697 0.000000 0.000000 0.000000 0.000000 0.000000 -19.065912 -0.000000 -9.698054 -13.346139 0.000000 0.000000 -13.346139 0.000000 0.000000 0.000000 0.000000 0.000000 0.000000 0.000000 0.000000 0.000000 0.000000 0.000000 -1.045058 -10.518975 11.869204 -0.078405 -0.635030 3.758801 -2.197730 -7.901679 18.681496 -0.890004 0.828132 -18.870453 0.000000 0.000000 0.000000 0.000000 0.000000 0.000000 0.000000 0.000000 0.000000 -1.784023 -6.543907 7.474547 0.053202 0.398207 7.545935 3.843466 -1.785134 17.966772 0.194973 -0.390531 -20.817129 0.000000 0.000000 0.000000 0.000000 0.000000 0.000000 0.000000 0.000000 0.000000 
0.081040 88.238823 3.019905 -0.209698 -0.222204 -7.901506 1.333786 -0.197802 6.810508 -1.148211 0.170852 2.650344 0.652575 -1.685264 2.829186 -0.734995 -0.286076 3.391770 2.339482 0.948058 2.944426 0.931562 2.315541 -3.675430 -0.717421 -1.086855 -17.787096 0.000000 0.000000 0.000000 91.946381 -0.537337 9.629617 66.397163 -31.440111 4.525164 -0.201506 13.743793 23.393507 6.833696 12.299180 -5.256886 10.341990 -1.809491 39.892628 -0.000000 0.000026 -25.346767 0.000011 0.000044 -17.422432 0.000000 -0.000003 -0.000020 12.127125 0.112350 -8.969505 8.534167 -0.017403 -0.226800 8.635621 0.010272 -0.220987 -0.000026 0.000028 -0.000023 10.880679 0.040024 -10.277993 7.759542 -0.015026 -0.072693 7.870052 0.003141 -0.064646 0.000019 0.000021 0.000014 10.741850 -0.098191 -10.419220 7.748760 0.051482 0.024324 7.771287 0.006757 0.020942 -0.000015 -0.000026 0.000010 10.078399 -0.279667 -11.964101 7.409811 0.144693 -0.023851 7.314208 0.050772 0.004969 0.000102 -0.000005 0.000008 0.000000 0.000000 0.000000 0.000000 0.000000 0.000000 -88.794418 0.143459 6.332488 -71.352768 19.360229 -5.502509 -1.244946 -10.442235 40.656700 -0.057719 -23.628117 -15.004726 -10.850921 1.812246 39.635422 0.000004 0.000019 -26.692783 -0.000028 -0.000026 -18.360798 -0.000186 0.000002 0.000023 -16.436563 0.153016 -9.639428 -11.201952 0.010492 0.288874 -11.524777 0.035409 0.253082 0.000011 0.000146 -0.000006 -15.795923 0.074402 -10.348299 -11.000158 -0.004440 0.107857 -10.814347 0.013450 0.096100 -0.000246 -0.000046 -0.000036 -17.590837 -0.052796 -10.696889 -12.222477 0.026747 -0.186421 -12.093080 -0.013676 -0.119610 0.000411 0.000011 0.000006 -18.230801 -0.239489 -11.486339 -12.699032 0.029714 -0.401880 -12.675697 -0.043246 -0.339191 -0.000180 -0.000012 -0.000033 0.000000 0.000000 0.000000 0.000000 0.000000 0.000000 -0.753623 -10.273957 12.065643 -0.022360 -0.629987 4.749902 -2.459964 -8.662833 19.089674 -0.863678 0.857690 -18.770664 0.000000 0.000000 0.000000 0.000000 0.000000 0.000000 0.000000 0.000000 0.000000 -1.373398 -5.735125 8.659389 0.051036 0.424404 6.982440 3.561844 -0.647711 18.531773 0.313579 -0.493866 -20.948299 0.000000 0.000000 0.000000 0.000000 0.000000 0.000000 0.000000 0.000000 0.000000 
0.078176 88.222427 2.993190 -0.193717 -0.267632 -7.980424 1.279256 -0.176510 6.845502 -1.072507 0.162140 2.721839 0.558267 -1.688655 2.867389 -0.711466 -0.307696 3.416186 2.464765 0.846360 3.091935 0.902324 2.252283 -3.555193 -0.736281 -1.076129 -17.852428 0.000000 0.000000 0.000000 91.971832 -0.530897 9.651318 66.338829 -31.388584 4.726793 -0.225806 13.747704 23.118261 6.860123 12.169888 -5.428339 10.309435 -1.805452 39.911739 -0.000002 0.000045 -25.242413 0.000015 0.000038 -17.361528 0.000012 0.000004 -0.000033 12.075937 0.116377 -8.894713 8.478813 -0.022136 -0.207409 8.572697 0.006473 -0.202057 -0.000005 0.000042 -0.000017 10.835124 0.040510 -10.228997 7.708210 -0.017167 -0.063439 7.807807 0.001026 -0.056598 0.000015 0.000011 0.000002 10.752375 -0.097872 -10.419002 7.698352 0.054364 0.010649 7.709399 0.009817 0.010926 -0.000021 -0.000038 -0.000003 10.129068 -0.281504 -12.018652 7.391558 0.153282 -0.052198 7.292402 0.056414 -0.018471 0.000122 0.000006 0.000004 0.000000 0.000000 0.000000 0.000000 0.000000 0.000000 -88.810539 0.129554 6.322810 -71.251312 19.510147 -5.363338 -1.195851 -10.169680 40.504135 0.101515 -23.551729 -15.457144 -10.823437 1.805599 39.650684 0.000016 0.000023 -26.613495 -0.000036 -0.000013 -18.303740 -0.000292 0.000013 -0.000011 -16.303560 0.158925 -9.722802 -11.148896 0.004800 0.258929 -11.460705 0.030094 0.222826 0.000025 0.000087 0.000003 -15.638145 0.076389 -10.461071 -10.934945 -0.006408 0.093686 -10.753831 0.011316 0.084866 -0.000252 -0.000040 -0.000055 -17.405602 -0.050247 -10.868618 -12.144178 0.030189 -0.167221 -12.020555 -0.010958 -0.106799 0.000473 0.000017 0.000011 -18.061422 -0.228820 -11.723178 -12.645149 0.039664 -0.341988 -12.628445 -0.034804 -0.295540 -0.000155 0.000008 -0.000051 0.000000 0.000000 0.000000 0.000000 0.000000 0.000000 -0.766043 -10.316636 12.077744 -0.021854 -0.628155 4.761581 -2.451168 -8.528849 19.066727 -0.850062 0.860833 -18.786232 0.000000 0.000000 0.000000 0.000000 0.000000 0.000000 0.000000 0.000000 0.000000 -1.326561 -5.620323 8.699284 0.049260 0.417068 6.942184 3.537408 -0.714269 18.567379 0.318897 -0.495359 -20.954960 0.000000 0.000000 0.000000 0.000000 0.000000 0.000000 0.000000 0.000000 0.000000 
0.077236 88.212074 2.973180 -0.180813 -0.323294 -8.053592 1.238208 -0.154033 6.882329 -1.014104 0.154147 2.781606 0.503511 -1.681677 2.909640 -0.678891 -0.321275 3.409837 2.507254 0.770681 3.182046 0.883873 2.188303 -3.482847 -0.737430 -1.069002 -17.906979 0.000000 0.000000 0.000000 92.008087 -0.518625 9.688289 66.299805 -31.235472 4.848584 -0.251230 13.797661 22.887085 6.872657 12.100557 -5.534508 10.303630 -1.805488 39.915089 0.000000 0.000045 -25.205416 0.000013 0.000040 -17.346317 0.000012 0.000004 -0.000033 12.042369 0.117544 -8.896596 8.426833 -0.024624 -0.195229 8.507965 0.004561 -0.189975 -0.000005 0.000042 -0.000018 10.807343 0.040194 -10.241805 7.655030 -0.018249 -0.057673 7.749468 -0.000181 -0.051516 0.000015 0.000015 0.000004 10.771818 -0.096816 -10.445687 7.653656 0.055586 0.003474 7.660986 0.011540 0.005726 -0.000019 -0.000015 -0.000002 10.161415 -0.279781 -12.055980 7.376577 0.156486 -0.062586 7.275184 0.057839 -0.026713 0.000132 0.000005 -0.000004 0.000000 0.000000 0.000000 0.000000 0.000000 0.000000 -88.817070 0.130724 6.321424 -71.238129 19.610065 -5.320777 -1.164403 -10.033495 40.365864 0.060250 -23.306459 -15.693102 -10.816525 1.804541 39.652359 0.000015 0.000023 -26.590837 -0.000040 -0.000014 -18.285576 -0.000398 0.000011 0.000014 -16.194532 0.159997 -9.748172 -11.073299 0.000120 0.236243 -11.377231 0.026044 0.198812 0.000023 0.000040 0.000003 -15.495535 0.076633 -10.520469 -10.852896 -0.008189 0.082965 -10.674938 0.009556 0.075927 -0.000260 -0.000041 -0.000070 -17.223026 -0.047347 -10.977784 -12.049869 0.032728 -0.152750 -11.930508 -0.008985 -0.096712 0.000455 0.000017 0.000011 -17.885435 -0.220513 -11.891323 -12.570001 0.046762 -0.298567 -12.556346 -0.029039 -0.261179 -0.000145 0.000008 -0.000052 0.000000 0.000000 0.000000 0.000000 0.000000 0.000000 -0.787249 -10.302751 12.086783 -0.021472 -0.625635 4.780669 -2.451965 -8.418186 19.066551 -0.841536 0.861014 -18.802383 0.000000 0.000000 0.000000 0.000000 0.000000 0.000000 0.000000 0.000000 0.000000 -1.306027 -5.510933 8.746765 0.046856 0.408726 6.909583 3.535017 -0.698456 18.590935 0.321594 -0.494927 -20.951851 0.000000 0.000000 0.000000 0.000000 0.000000 0.000000 0.000000 0.000000 0.000000 
